<svg width="48" height="48" viewBox="0 0 48 48" fill="none" xmlns="http://www.w3.org/2000/svg">
<path d="M16.8176 27.888V24.3031C19.4591 23.9926 21.4996 22.1043 21.4996 19.8213C21.4996 17.5404 19.4591 15.6531 16.8176 15.3426V9.33207C18.6181 9.60437 19.9807 10.8248 19.9807 12.2856C19.9807 12.7053 20.3204 13.045 20.7401 13.045C21.1598 13.045 21.4996 12.7053 21.4996 12.2856C21.4996 10.0026 19.4586 8.11375 16.8176 7.80486V4.2189C16.8176 3.7992 16.4779 3.45947 16.0582 3.45947C15.6385 3.45947 15.2987 3.7992 15.2987 4.2189V7.80538C12.6551 8.11427 10.6121 10.0032 10.6121 12.2867C10.6121 14.5675 12.6551 16.4543 15.2987 16.7632V22.7775C13.4961 22.5062 12.1309 21.2847 12.1309 19.8218C12.1309 19.4021 11.7912 19.0624 11.3715 19.0624C10.9518 19.0624 10.6121 19.4021 10.6121 19.8218C10.6121 22.1069 12.6551 23.9968 15.2987 24.3047V27.8885C15.2987 28.3082 15.6385 28.648 16.0582 28.648C16.4779 28.648 16.8176 28.3077 16.8176 27.888ZM19.9807 19.8213C19.9807 21.2821 18.6187 22.5025 16.8176 22.7759V16.8699C18.6187 17.1432 19.9807 18.362 19.9807 19.8213ZM12.1309 12.2861C12.1309 10.8248 13.4956 9.60437 15.2987 9.33259V15.2355C13.4956 14.9637 12.1309 13.7454 12.1309 12.2861Z" fill="#FFCF01"/>
<path d="M32.108 16.0524C32.108 7.20067 24.9063 0 16.054 0C7.20172 0 0 7.20067 0 16.0524C0 24.9042 7.20172 32.1059 16.054 32.1059C24.9063 32.1059 32.108 24.9042 32.108 16.0524ZM1.51885 16.0524C1.51885 8.03849 8.03901 1.51885 16.054 1.51885C24.069 1.51885 30.5891 8.03849 30.5891 16.0524C30.5891 24.0669 24.069 30.587 16.054 30.587C8.03901 30.587 1.51885 24.0674 1.51885 16.0524Z" fill="#FFCF01"/>
<path d="M47.9759 30.6994L46.3823 24.4918C46.2789 24.0868 45.8639 23.8427 45.4604 23.9446L39.2956 25.5058C38.889 25.6082 38.6428 26.0216 38.7458 26.4283C38.8482 26.8349 39.2632 27.0805 39.6683 26.9781L44.0759 25.8622L36.0598 38.335L30.886 30.7925C30.7381 30.5771 30.5003 30.4689 30.2264 30.4632C29.9646 30.4747 29.7273 30.6205 29.5982 30.8484L22.6421 43.1638L15.2925 37.7862C14.9789 37.5567 14.5409 37.6011 14.2796 37.8912L6.63833 46.3865C6.35767 46.6985 6.38328 47.1789 6.69531 47.459C6.8406 47.5897 7.02197 47.654 7.20281 47.654C7.41082 47.654 7.6178 47.5693 7.7678 47.4026L14.9497 39.4179L22.4346 44.8948C22.6097 45.0229 22.8324 45.071 23.043 45.0239C23.2552 44.9785 23.4376 44.8441 23.5443 44.6555L30.3221 32.6573L35.4541 40.1381C35.5978 40.3477 35.833 40.4726 36.0917 40.4679C36.3463 40.4637 36.582 40.3331 36.7194 40.1188L45.3705 26.6582L46.5052 31.0778C46.593 31.4207 46.9019 31.6486 47.24 31.6486C47.3022 31.6486 47.366 31.6407 47.4292 31.6245C47.8353 31.5195 48.0805 31.1055 47.9759 30.6994Z" fill="#FFCF01"/>
</svg>
