<svg width="42" height="49" viewBox="0 0 42 49" fill="none" xmlns="http://www.w3.org/2000/svg">
<path d="M21.0591 28.5734C10.768 28.5734 2.39618 36.9473 2.39618 47.2394C2.39618 47.6689 2.74423 48.0175 3.17423 48.0175H38.9466C39.3766 48.0175 39.7247 47.6689 39.7247 47.2394C39.7247 36.9473 31.3512 28.5734 21.0591 28.5734ZM3.96941 46.4614C4.37763 37.3867 11.8869 30.1295 21.0591 30.1295C30.2324 30.1295 37.7427 37.3867 38.1509 46.4614H3.96941Z" fill="#fff"/>
<path d="M20.7495 5.03406C14.8269 5.03406 10.0082 9.85177 10.0082 15.7733C10.0082 21.6958 14.8269 26.5141 20.7495 26.5141C26.671 26.5141 31.4887 21.6958 31.4887 15.7733C31.4887 9.85177 26.671 5.03406 20.7495 5.03406ZM20.7495 24.958C15.6849 24.958 11.5643 20.8379 11.5643 15.7733C11.5643 10.7097 15.6849 6.59017 20.7495 6.59017C25.8131 6.59017 29.9326 10.7097 29.9326 15.7733C29.9326 20.8379 25.8131 24.958 20.7495 24.958Z" fill="#fff"/>
<path d="M6.92963 22.0823H8.07025C8.50026 22.0823 8.84831 21.7337 8.84831 21.3042V10.9302C8.84831 10.6687 8.85298 10.6096 8.85298 10.4135C11.0123 5.58131 15.4099 2.37157 20.7494 2.37157C26.2928 2.37157 31.1878 5.7032 33.2206 10.8581C33.2237 10.8659 33.2289 10.8726 33.232 10.8799C33.231 10.8965 33.2268 10.9125 33.2268 10.9297V20.6667C32.5588 22.366 31.5701 23.8889 30.2842 25.1914C29.9824 25.4974 29.9855 25.9897 30.2915 26.2916C30.443 26.4415 30.6406 26.5162 30.8382 26.5162C31.039 26.5162 31.2397 26.4389 31.3917 26.2848C32.6091 25.0513 33.5858 23.64 34.3099 22.0818H35.1435C38.4325 22.0818 41.1085 19.4063 41.1085 16.1172C41.1085 12.8276 38.4325 10.1516 35.1435 10.1516H34.6087C32.3072 4.47595 26.8857 0.814941 20.7489 0.814941C14.6396 0.814941 9.53092 4.53093 7.21076 10.1599C7.21076 10.1599 6.93896 10.1568 6.88502 10.1537C3.61667 10.1775 0.964539 12.8426 0.964539 16.1172C0.965057 19.4068 3.64053 22.0823 6.92963 22.0823ZM34.7835 11.7082H35.144C37.5751 11.7082 39.5529 13.686 39.5529 16.1177C39.5529 18.5489 37.5751 20.5262 35.144 20.5262H34.7835V11.7082ZM6.92963 11.7082H7.2922V20.5262H6.92963C4.49846 20.5262 2.52117 18.5489 2.52117 16.1177C2.52117 13.6866 4.49898 11.7082 6.92963 11.7082Z" fill="#fff"/>
</svg>
