<svg width="64" height="62" viewBox="0 0 64 62" fill="none" xmlns="http://www.w3.org/2000/svg">
<path d="M22 34.5L29.5 42L46 25.5" stroke="#FFCF01" stroke-width="5" stroke-linecap="round"/>
<path d="M19.9207 61.3859C19.4902 61.3725 19.0668 61.2731 18.6752 61.0937C12.0375 58.0537 6.63886 52.8353 3.37527 46.3046C0.111671 39.7739 -0.820636 32.3235 0.733061 25.19C2.28676 18.0564 6.23304 11.6686 11.917 7.0867C17.6009 2.50477 24.6808 0.00421229 31.9816 5.31705e-06C39.2823 -0.00420165 46.3651 2.4882 52.0543 7.06358C57.7435 11.639 61.6972 18.0222 63.2591 25.1539C64.821 32.2857 63.8973 39.7371 60.6412 46.2716C57.3851 52.8061 51.9925 58.0307 45.3583 61.0784C44.9746 61.2546 44.56 61.3536 44.1381 61.3697C43.7162 61.3857 43.2953 61.3185 42.8994 61.1719C42.5035 61.0252 42.1403 60.802 41.8307 60.5151C41.521 60.2281 41.2709 59.8829 41.0946 59.4993C40.9183 59.1156 40.8193 58.701 40.8033 58.2791C40.7873 57.8572 40.8545 57.4363 41.0011 57.0404C41.1477 56.6445 41.3709 56.2813 41.6579 55.9716C41.9449 55.662 42.29 55.4119 42.6737 55.2356C47.9781 52.8034 52.2913 48.6304 54.8974 43.4092C57.5035 38.188 58.2458 32.2326 57.001 26.5315C55.7563 20.8303 52.5994 15.7263 48.0543 12.0664C43.5091 8.40658 37.8491 6.41105 32.0137 6.41105C26.1782 6.41105 20.5182 8.40658 15.9731 12.0664C11.428 15.7263 8.27107 20.8303 7.02633 26.5315C5.78158 32.2326 6.52386 38.188 9.12996 43.4092C11.7361 48.6304 16.0493 52.8034 21.3537 55.2356C22.0385 55.538 22.5962 56.0701 22.9306 56.7399C23.265 57.4098 23.355 58.1753 23.1851 58.9044C23.0152 59.6335 22.5961 60.2804 22.0001 60.7335C21.4041 61.1865 20.6687 61.4173 19.9207 61.3859Z" fill="white"/>
</svg>
