<svg width="95" height="54" viewBox="0 0 95 54" fill="none" xmlns="http://www.w3.org/2000/svg">
<path d="M27.5187 27.4201C24.734 27.4171 22.0641 26.3096 20.095 24.3405C18.126 22.3714 17.0184 19.7016 17.0155 16.9169C17.0155 16.4774 17.1901 16.056 17.5008 15.7452C17.8116 15.4345 18.233 15.2599 18.6725 15.2599C19.1119 15.2599 19.5334 15.4345 19.8441 15.7452C20.1549 16.056 20.3295 16.4774 20.3295 16.9169C20.3295 18.8236 21.0869 20.6522 22.4351 22.0004C23.7834 23.3487 25.612 24.1061 27.5187 24.1061C29.4254 24.1061 31.254 23.3487 32.6022 22.0004C33.9504 20.6522 34.7079 18.8236 34.7079 16.9169C34.7079 16.4774 34.8824 16.056 35.1932 15.7452C35.5039 15.4345 35.9254 15.2599 36.3648 15.2599C36.8043 15.2599 37.2258 15.4345 37.5365 15.7452C37.8472 16.056 38.0218 16.4774 38.0218 16.9169C38.0189 19.7016 36.9114 22.3714 34.9423 24.3405C32.9732 26.3096 30.3034 27.4171 27.5187 27.4201Z" fill="#FFCF01"/>
<path d="M21.2716 31.6521C21.0496 31.6452 20.8313 31.594 20.6294 31.5015C17.2068 29.9339 14.4232 27.2432 12.7404 23.8758C11.0576 20.5084 10.5769 16.6668 11.378 12.9886C12.1791 9.31034 14.2139 6.01664 17.1447 3.65408C20.0755 1.29152 23.726 0.00217196 27.4905 2.7416e-06C31.255 -0.00216648 34.907 1.28298 37.8405 3.64216C40.774 6.00134 42.8126 9.29269 43.618 12.97C44.4233 16.6473 43.947 20.4894 42.2681 23.8588C40.5892 27.2281 37.8086 29.9221 34.3879 31.4935C34.19 31.5844 33.9763 31.6355 33.7587 31.6437C33.5412 31.652 33.3241 31.6173 33.12 31.5417C32.9158 31.4661 32.7286 31.3511 32.5689 31.2031C32.4093 31.0551 32.2803 30.8771 32.1894 30.6793C32.0985 30.4815 32.0475 30.2677 32.0392 30.0502C32.0309 29.8326 32.0656 29.6156 32.1412 29.4115C32.2168 29.2073 32.3319 29.0201 32.4798 28.8604C32.6278 28.7007 32.8058 28.5717 33.0036 28.4809C35.7387 27.2267 37.9627 25.075 39.3065 22.3829C40.6502 19.6907 41.033 16.62 40.3912 13.6803C39.7493 10.7406 38.1216 8.10885 35.778 6.22175C33.4344 4.33464 30.516 3.3057 27.5071 3.3057C24.4981 3.3057 21.5797 4.33464 19.2361 6.22175C16.8926 8.10885 15.2648 10.7406 14.6229 13.6803C13.9811 16.62 14.3639 19.6907 15.7076 22.3829C17.0514 25.075 19.2754 27.2267 22.0105 28.4809C22.3636 28.6368 22.6512 28.9112 22.8236 29.2565C22.996 29.6019 23.0424 29.9966 22.9548 30.3726C22.8672 30.7485 22.6511 31.0821 22.3438 31.3157C22.0365 31.5493 21.6573 31.6683 21.2716 31.6521Z" fill="white"/>
<path d="M0 36.1617H5.12843L12.4098 48.0637H12.463V36.1617H16.2323V53.2874H11.2967L3.82248 41.0927H3.7737V53.2874H0.004432L0 36.1617Z" fill="#FFCF01"/>
<path d="M35.125 46.6891C35.1352 47.6435 34.9799 48.5925 34.6661 49.4939C34.3721 50.3408 33.8942 51.1122 33.2666 51.7524C32.6391 52.3926 31.8774 52.8859 31.0365 53.1966C30.0392 53.5681 28.9809 53.7486 27.9169 53.7288C26.8441 53.7498 25.7768 53.5693 24.7706 53.1966C23.9183 52.8748 23.1465 52.3708 22.5091 51.72C21.901 51.0867 21.4353 50.3307 21.1432 49.5027C20.8284 48.5985 20.6731 47.6465 20.6843 46.6891V36.1617H24.4536V46.5383C24.4486 47.0417 24.5342 47.5419 24.7063 48.015C24.8647 48.4492 25.1073 48.8478 25.4203 49.1879C25.7311 49.5211 26.1089 49.7848 26.5289 49.9617C26.9675 50.1483 27.4402 50.2419 27.9169 50.2366C28.3911 50.2418 28.8611 50.1466 29.296 49.9573C29.7082 49.7769 30.0787 49.5134 30.3846 49.1835C30.6967 48.8427 30.9392 48.4443 31.0986 48.0105C31.2707 47.5375 31.3563 47.0373 31.3513 46.5339V36.1573H35.1206L35.125 46.6891Z" fill="#FFCF01"/>
<path d="M50.7767 40.612C50.4089 40.1636 49.9411 39.8074 49.4109 39.5722C48.8184 39.3198 48.1791 39.1959 47.5352 39.2085C46.8675 39.2003 46.2058 39.3345 45.594 39.6021C44.9823 39.8697 44.4347 40.2647 43.9876 40.7606C43.5316 41.273 43.1785 41.8685 42.9477 42.5144C42.448 43.9435 42.448 45.4998 42.9477 46.9289C43.179 47.5684 43.5271 48.1593 43.9743 48.6716C44.4012 49.157 44.9245 49.5481 45.5108 49.8202C46.1059 50.0965 46.7549 50.2374 47.411 50.2326C48.1258 50.2463 48.8326 50.0801 49.4664 49.7492C50.0628 49.4254 50.5701 48.9593 50.943 48.3923L54.087 50.7403C53.3931 51.7302 52.4383 52.5084 51.3288 52.9886C50.247 53.4672 49.0773 53.7149 47.8943 53.7158C46.6331 53.7288 45.3798 53.5155 44.1938 53.0861C43.1043 52.6923 42.1074 52.0787 41.2649 51.2835C40.4294 50.4834 39.774 49.5144 39.3425 48.441C38.4231 46.0429 38.4231 43.3894 39.3425 40.9912C39.7746 39.9182 40.4299 38.9493 41.2649 38.1487C42.1074 37.3535 43.1043 36.74 44.1938 36.3461C45.3798 35.9167 46.6331 35.7034 47.8943 35.7164C48.4012 35.7185 48.907 35.763 49.4065 35.8495C49.9364 35.9396 50.4563 36.0814 50.9585 36.2729C51.4751 36.4723 51.9663 36.7321 52.4219 37.0468C52.8976 37.3775 53.3213 37.7773 53.6791 38.233L50.7767 40.612Z" fill="white"/>
<path d="M64.0329 51.8133H63.9842C63.6043 52.4228 63.0417 52.8968 62.3767 53.168C61.7044 53.4417 60.9851 53.581 60.2592 53.5782C59.7235 53.5824 59.1901 53.5077 58.6761 53.3565C58.1885 53.2142 57.7324 52.9802 57.3325 52.6669C56.9452 52.3607 56.6308 51.9722 56.4124 51.5295C56.1795 51.0387 56.0641 50.5005 56.0753 49.9575C56.0562 49.3625 56.185 48.7721 56.4501 48.2391C56.6935 47.7781 57.0412 47.3802 57.4655 47.0773C57.9116 46.7624 58.4058 46.5221 58.9289 46.3656C59.486 46.1936 60.0563 46.0676 60.6339 45.9886C61.2222 45.9085 61.8143 45.8603 62.4077 45.8445C62.9953 45.829 63.5407 45.8201 64.0396 45.8201C64.0519 45.5281 63.9959 45.2371 63.8762 44.9704C63.7565 44.7037 63.5764 44.4686 63.35 44.2836C62.8918 43.9048 62.3126 43.7034 61.7182 43.716C61.1514 43.7085 60.591 43.837 60.0841 44.0907C59.5838 44.3471 59.1369 44.6962 58.7671 45.1195L56.8314 43.1351C57.5132 42.5021 58.3209 42.0201 59.2016 41.7205C60.1039 41.4057 61.053 41.246 62.0086 41.2482C62.9007 41.2207 63.7902 41.356 64.6338 41.6473C65.2772 41.883 65.8449 42.2883 66.2768 42.8202C66.7079 43.3778 67.0026 44.0285 67.1371 44.7204C67.3076 45.5758 67.3886 46.4467 67.3787 47.319V53.2944H64.0329V51.8133ZM63.1461 48.1349C62.8711 48.1349 62.5275 48.1482 62.1173 48.1726C61.7152 48.1952 61.3172 48.2644 60.931 48.3788C60.5768 48.4785 60.2475 48.6515 59.9643 48.8865C59.8307 49.003 59.7253 49.1484 59.6561 49.3117C59.587 49.4749 59.5559 49.6518 59.5652 49.8289C59.5559 50.0266 59.6033 50.2229 59.702 50.3946C59.8006 50.5663 59.9462 50.7062 60.1218 50.7978C60.4744 51.0013 60.8742 51.1091 61.2814 51.1104C61.6294 51.1121 61.976 51.0636 62.3102 50.9663C62.6262 50.8779 62.9258 50.7386 63.1971 50.5539C63.4529 50.3795 63.6647 50.148 63.8157 49.8776C63.9715 49.5798 64.0479 49.2469 64.0374 48.9109V48.1349H63.1461Z" fill="white"/>
<path d="M77.2649 44.9905C77.0169 44.6713 76.6971 44.4152 76.3315 44.243C75.9658 44.0708 75.5647 43.9873 75.1607 43.9994C74.8518 44.0027 74.548 44.0786 74.2739 44.2211C74.1327 44.2863 74.0147 44.393 73.9355 44.5268C73.8563 44.6606 73.8197 44.8154 73.8304 44.9705C73.8275 45.1104 73.8689 45.2476 73.9485 45.3626C74.0281 45.4777 74.1419 45.5647 74.2739 45.6113C74.6388 45.7711 75.0192 45.8929 75.4091 45.9749L76.8857 46.3142C77.4025 46.4321 77.8997 46.6232 78.3624 46.8818C78.8188 47.1381 79.2079 47.499 79.4976 47.9349C79.8188 48.4689 79.9732 49.0865 79.9411 49.7087C79.968 50.3687 79.7957 51.0215 79.4466 51.5823C79.1191 52.0694 78.6845 52.4751 78.1761 52.7685C77.6348 53.0749 77.0456 53.2878 76.4334 53.3982C75.8032 53.5165 75.1634 53.5767 74.5222 53.5778C73.6794 53.5745 72.841 53.4566 72.03 53.2274C71.2214 53.011 70.4861 52.5805 69.9015 51.9814L72.1032 49.5424C72.4095 49.9345 72.7928 50.2597 73.2295 50.498C73.675 50.7236 74.1693 50.8356 74.6685 50.824C75.0551 50.8292 75.4398 50.7685 75.8059 50.6444C75.9539 50.6084 76.0851 50.5227 76.1775 50.4016C76.2699 50.2806 76.318 50.1315 76.3137 49.9792C76.3162 49.8333 76.2754 49.69 76.1965 49.5672C76.1175 49.4445 76.004 49.3479 75.8702 49.2897C75.5084 49.1142 75.1264 48.9839 74.7328 48.9017L73.2561 48.5624C72.7431 48.4462 72.2475 48.2636 71.7817 48.0192C71.2696 47.7604 70.8456 47.3557 70.5635 46.856C70.2813 46.3564 70.1536 45.7844 70.1964 45.2122C70.1798 44.5891 70.3258 43.9724 70.6199 43.4229C70.8918 42.9331 71.2708 42.511 71.7285 42.1879C72.2099 41.8569 72.7469 41.6151 73.3138 41.474C73.9066 41.3241 74.516 41.2496 75.1275 41.2522C75.9243 41.2535 76.717 41.367 77.4822 41.5893C78.2499 41.8003 78.9448 42.2184 79.491 42.7976L77.2649 44.9905Z" fill="white"/>
<path d="M86.4095 35V43.1283H86.4582C86.5519 42.8789 86.6918 42.6495 86.8707 42.4521C87.0733 42.2171 87.3094 42.0132 87.5713 41.8468C87.8714 41.6549 88.1968 41.5056 88.538 41.4033C88.9312 41.2888 89.339 41.232 89.7486 41.2348C90.5103 41.2054 91.2686 41.3503 91.9658 41.6583C92.5056 41.9188 92.9618 42.325 93.2828 42.8312C93.6139 43.3734 93.8326 43.9766 93.9258 44.605C94.0413 45.3331 94.0977 46.0694 94.0943 46.8067V53.2898H90.4736V47.5251C90.4736 47.1858 90.4625 46.8355 90.4382 46.4719C90.4162 46.1277 90.3415 45.7889 90.2164 45.4675C90.1023 45.1346 89.8784 44.8503 89.5815 44.6614C89.2846 44.4724 88.9323 44.39 88.5823 44.4276C88.1877 44.4138 87.7966 44.5057 87.4493 44.6937C87.1712 44.8507 86.9412 45.0807 86.7842 45.3588C86.6269 45.6566 86.5247 45.9804 86.4826 46.3145C86.4331 46.6819 86.4086 47.0523 86.4095 47.4231V53.2765H82.7821V35H86.4095Z" fill="white"/>
</svg>
