<svg width="38" height="48" viewBox="0 0 38 48" fill="none" xmlns="http://www.w3.org/2000/svg">
<path d="M36.7178 7.38086C36.661 7.36139 36.6015 7.34571 36.5393 7.33977C30.1293 6.69855 24.9822 5.27932 19.1393 0.192801C18.8117 -0.0915853 18.3159 -0.0575239 18.031 0.269575C18.0147 0.287957 18.0099 0.311746 17.9958 0.33121C12.2 5.33879 7.07722 6.74721 0.708263 7.38356C0.693124 7.38518 0.679608 7.39005 0.66501 7.39221C0.64014 7.396 0.61581 7.40086 0.592021 7.40681C0.565529 7.41384 0.540118 7.42141 0.514707 7.4306C0.491459 7.43925 0.469292 7.44844 0.447125 7.45925C0.423336 7.47061 0.400087 7.48304 0.37792 7.4971C0.356834 7.51008 0.33683 7.52359 0.317367 7.53819C0.296822 7.55333 0.277899 7.56955 0.258976 7.58631C0.240052 7.60361 0.222211 7.62145 0.204909 7.64091C0.18923 7.65876 0.174092 7.6766 0.159494 7.69552C0.143275 7.71715 0.128136 7.73986 0.114079 7.7631C0.102184 7.78257 0.091912 7.80203 0.0816395 7.82258C0.0692043 7.84799 0.0583909 7.8734 0.0491997 7.89989C0.0416305 7.92152 0.0346021 7.94314 0.0291955 7.96531C0.022167 7.99288 0.0162194 8.02046 0.0118941 8.04911C0.00865019 8.07236 0.00594715 8.09561 0.00486583 8.1194C0.00378452 8.13508 0 8.14967 0 8.16535V28.3622C0 28.4319 0.009191 28.5006 0.0275734 28.5676C3.54131 41.5245 17.7163 47.6821 18.3181 47.9373C18.4165 47.9789 18.5208 48 18.6252 48C18.7284 48 18.8322 47.9795 18.9295 47.9389C19.5378 47.6826 33.876 41.5262 37.3892 28.5676C37.4006 28.5266 37.4082 28.4849 37.4125 28.4422L37.4812 27.7696C37.4839 27.7431 37.4855 27.7161 37.4855 27.6902V8.16481C37.4855 7.73715 37.1432 7.39059 36.7178 7.38086ZM35.8559 28.2184C32.792 39.3808 20.7121 45.3902 18.6268 46.3532C16.5598 45.3892 4.65615 39.4052 1.57115 28.2568V8.86929C7.78603 8.18211 12.9125 6.66827 18.6495 1.83262C24.4394 6.69368 29.6108 8.17725 35.9143 8.85199V27.6496L35.8559 28.2184Z" fill="#fff"/>
<path d="M10.6331 23.7298L16.7155 29.8122L30.0968 16.4309" stroke="#fff" stroke-width="2" stroke-linecap="round"/>
</svg>
