<svg width="56" height="56" viewBox="0 0 56 56" fill="none" xmlns="http://www.w3.org/2000/svg">
<path d="M39.2 4.20001H16.8C16.1317 4.20001 15.4907 4.46551 15.0181 4.9381C14.5455 5.41069 14.28 6.05167 14.28 6.72001V49.28C14.28 49.9484 14.5455 50.5893 15.0181 51.0619C15.4907 51.5345 16.1317 51.8 16.8 51.8H39.2C39.8684 51.8 40.5094 51.5345 40.9819 51.0619C41.4545 50.5893 41.72 49.9484 41.72 49.28V6.72001C41.72 6.05167 41.4545 5.41069 40.9819 4.9381C40.5094 4.46551 39.8684 4.20001 39.2 4.20001ZM15.96 11.48H40.04V42.28H15.96V11.48ZM16.8 5.88001H39.2C39.4228 5.88001 39.6365 5.96851 39.794 6.12604C39.9515 6.28357 40.04 6.49723 40.04 6.72001V9.80001H15.96V6.72001C15.96 6.49723 16.0485 6.28357 16.2061 6.12604C16.3636 5.96851 16.5772 5.88001 16.8 5.88001ZM39.2 50.12H16.8C16.5772 50.12 16.3636 50.0315 16.2061 49.874C16.0485 49.7165 15.96 49.5028 15.96 49.28V43.96H40.04V49.28C40.04 49.5028 39.9515 49.7165 39.794 49.874C39.6365 50.0315 39.4228 50.12 39.2 50.12Z" fill="#FFCF01"/>
<path d="M28 48.16C28.6186 48.16 29.12 47.6585 29.12 47.04C29.12 46.4214 28.6186 45.92 28 45.92C27.3814 45.92 26.88 46.4214 26.88 47.04C26.88 47.6585 27.3814 48.16 28 48.16Z" fill="#FFCF01"/>
<path d="M28.8399 25.5416V19.9416C30.4415 20.2384 31.6399 21.3528 31.6399 22.6856C31.6399 22.9084 31.7284 23.1221 31.886 23.2796C32.0435 23.4371 32.2571 23.5256 32.4799 23.5256C32.7027 23.5256 32.9164 23.4371 33.0739 23.2796C33.2314 23.1221 33.3199 22.9084 33.3199 22.6856C33.3199 20.4456 31.3767 18.5864 28.8399 18.2448V16.8C28.8399 16.5772 28.7514 16.3636 28.5939 16.2061C28.4364 16.0485 28.2227 15.96 27.9999 15.96C27.7771 15.96 27.5635 16.0485 27.406 16.2061C27.2484 16.3636 27.1599 16.5772 27.1599 16.8V18.2168C24.6231 18.5584 22.6799 20.4176 22.6799 22.6576C22.6799 24.8976 24.6231 26.7512 27.1599 27.0928V32.6928C25.5583 32.396 24.3599 31.2816 24.3599 29.9488C24.3599 29.726 24.2714 29.5124 24.1139 29.3548C23.9564 29.1973 23.7427 29.1088 23.5199 29.1088C23.2971 29.1088 23.0835 29.1973 22.926 29.3548C22.7684 29.5124 22.6799 29.726 22.6799 29.9488C22.6799 32.1888 24.6231 34.048 27.1599 34.3896V35.84C27.1599 36.0628 27.2484 36.2765 27.406 36.434C27.5635 36.5915 27.7771 36.68 27.9999 36.68C28.2227 36.68 28.4364 36.5915 28.5939 36.434C28.7514 36.2765 28.8399 36.0628 28.8399 35.84V34.4232C31.3767 34.0816 33.3199 32.2224 33.3199 29.9824C33.3199 27.7424 31.3599 25.8832 28.8399 25.5416ZM24.3599 22.6632C24.3599 21.3304 25.5583 20.216 27.1599 19.9192V25.4016C25.5583 25.1048 24.3599 23.9904 24.3599 22.6576V22.6632ZM28.8399 32.7432V27.2552C30.4415 27.552 31.6399 28.6664 31.6399 29.9936C31.6399 31.3208 30.4415 32.4296 28.8399 32.7264V32.7432Z" fill="#FFCF01"/>
</svg>
