<svg width="56" height="56" viewBox="0 0 56 56" fill="none" xmlns="http://www.w3.org/2000/svg">
<path d="M25.6666 18.6673L21.4222 16.5451C21.1445 16.4063 20.8383 16.334 20.5278 16.334H17.1617C16.6313 16.334 16.1226 16.5447 15.7475 16.9198L12.2524 20.4149C11.8773 20.7899 11.6666 21.2986 11.6666 21.8291L11.6666 36.2636C11.6666 36.9323 12.0008 37.5568 12.5572 37.9277L24.4241 45.839C25.1611 46.3303 26.1334 46.2783 26.8139 45.7113L39.6666 35.0007" stroke="white" stroke-width="2"/>
<path fill-rule="evenodd" clip-rule="evenodd" d="M32.32 28.2482C31.7166 27.4402 30.606 27.2078 29.7293 27.7061L22.3249 31.9143C21.5423 32.3591 20.559 32.2263 19.9225 31.5898L17.882 29.5493C17.0504 28.7177 17.1124 27.3515 18.0158 26.5986L29.7771 16.7975C30.1365 16.498 30.5896 16.334 31.0575 16.334H34.5279C34.8384 16.334 35.1446 16.4063 35.4223 16.5451L43.2278 20.4479C43.9054 20.7866 44.3334 21.4792 44.3334 22.2367L44.3334 38.3136C44.3334 40.2377 41.8823 41.052 40.7309 39.5104L32.32 28.2482Z" stroke="white" stroke-width="2"/>
<path d="M2.33333 39.666V18.666" stroke="white" stroke-linecap="round"/>
<path d="M2.33333 39.666V18.666" stroke="white" stroke-width="2" stroke-linecap="round"/>
<path d="M53.6666 39.666V18.666" stroke="white" stroke-width="2" stroke-linecap="round"/>
</svg>
